<svg viewBox="0 0 30 46" xmlns="http://www.w3.org/2000/svg"><g fill="#000" fill-rule="nonzero"><path d="m7.04849914 35.3013105c.14011848-.3125348.71809456-3.0662148 1.73392826-8.2610401l-.13589901-.2598247c-.50902696-.9732064-.68345824-2.0869391-.49635152-3.169173l1.94809863-11.2678924c.4747617-2.2289202 1.6810765-3.3433803 3.6189443-3.3433803s3.4973511.92378854 4.6784497 2.7713656l4.0810911 4.2413454c.2258265.234694.5518.3447074.8736593.2948528l4.4554899-.6901359c1.1202202-.0557937 1.8295002.4351074 2.12784 1.4727031.2983399 1.0375958-.4109401 1.7144896-2.12784 2.0306815l-5.8096696 1.220648c-.3345365.0702882-.6817985-.0351782-.9207434-.2796375l-3.1663927-3.239467-.8879496 8.8137001 5.8158408 7.4682779c.6842106.9174619.6842106 2.6818337 0 5.2931153-.6842107 2.6112816-1.1434988 4.4652659-1.3778645 5.561953-.6262737 1.4815391-1.6474275 2.1132589-3.0634613 1.8951595-1.4160337-.2180993-2.0441072-1.0277737-1.8842204-2.4290232l1.6695648-7.8276995-4.4637941-5.9804294-1.6053563 7.0796768-3.94340673 7.5579038c-.8989891 1.499191-2.07214629 2.0323815-3.51947158 1.5995715-1.44732529-.4328099-1.94190529-1.4311352-1.48374-2.9949759 2.44871749-4.7263155 3.74313548-7.2457406 3.88325395-7.5582754z"/><path d="m26.5 11.5v3" stroke="#000" stroke-linecap="square"/><path d="m26.5 20.5v24" stroke="#000" stroke-linecap="square"/><circle cx="16" cy="4" r="4"/><path d="m1.97139651 17c.47238918-.8343727 1.02596493-1.1747291 1.66072724-1.0210692.73727792-3.9859539 2.02741709-5.9789308 3.87041752-5.9789308 1.84300042 0 2.66596883.5890577 2.46890515 1.7671732l-1.52225933 10.0763318c-.22210731 1.8365351-1.39408777 2.5000344-3.51594139 1.9904978-1.35199097-.3246636-2.38463247-.5458936-3.0979245-.6636899l-.00000025.0000015c-.5144732-.0849624-.87730718-.5509836-.83353393-1.0705846.22348412-2.6528198.54668728-4.3527297.96960949-5.0997298z" transform="matrix(.9998477 .01745241 -.01745241 .9998477 .297529 -.093399)"/></g></svg>