<?xml version="1.0" encoding="UTF-8"?>
<svg viewBox="0 0 1542 600" version="1.1" xmlns="http://www.w3.org/2000/svg" xmlns:xlink="http://www.w3.org/1999/xlink">
    <!-- Generator: Sketch 55 (78076) - https://sketchapp.com -->
    <title>mountains</title>
    <desc>Created with Sketch.</desc>
    <defs>
        <filter x="-3.7%" y="-26.5%" width="109.0%" height="153.2%" filterUnits="objectBoundingBox" id="filter-1">
            <feGaussianBlur stdDeviation="25" in="SourceGraphic"></feGaussianBlur>
        </filter>
    </defs>
    <g id="mountains" stroke="none" stroke-width="1" fill="none" fill-rule="evenodd">
        <path d="M1287.72659,322.058063 L1429.98388,596.619875 C1430.7461,598.090992 1430.17143,599.90147 1428.70031,600.663692 C1428.27383,600.884664 1427.80052,601 1427.32019,601 L73.8053677,601 C72.1485134,601 70.8053677,599.656854 70.8053677,598 C70.8053677,596.598665 71.7755036,595.384012 73.1421674,595.074224 L1284.3997,320.512412 C1285.73117,320.2106 1287.09852,320.845857 1287.72659,322.058063 Z" id="Rectangle" fill="#B6DFEE" opacity="0.135253906" filter="url(#filter-1)"></path>
        <path d="M966.746197,226 L1188.69475,593.93389 C1189.83583,595.82551 1189.2274,598.284001 1187.33578,599.425082 C1186.71225,599.801216 1185.99787,600 1185.26967,600 L726.814406,600 C724.605267,600 722.814406,598.209139 722.814406,596 C722.814406,595.215255 723.045236,594.447845 723.478157,593.793318 L966.746197,226 Z" id="Rectangle" fill="#F9FAFB" fill-rule="nonzero"></path>
        <polygon id="Rectangle" fill="#FFFFFF" fill-rule="nonzero" points="966.851571 242 1003.33142 303.866765 907.59413 330.772863"></polygon>
        <path d="M1190.33974,570.656716 L1242.66026,479.343284" id="Line" stroke="#F4F6F7" stroke-width="15" stroke-linecap="round" fill-rule="nonzero"></path>
        <path d="M1234.33974,541.656716 L1286.66026,450.343284" id="Line" stroke="#F4F6F7" stroke-width="15" stroke-linecap="round" fill-rule="nonzero"></path>
        <g id="Group" opacity="0.83765811" transform="translate(693.000000, 531.000000)">
            <polygon id="Rectangle" fill="#89B659" points="32.4761905 0 43.7194337 32.3076923 21.2329472 32.3076923"></polygon>
            <polygon id="Rectangle" fill="#89B659" points="11.3753754 15.2564103 18.2462462 35 4.5045045 35"></polygon>
            <polygon id="Rectangle" fill="#89B659" points="19.7837838 8.07692308 29.6936937 34.1025641 9.87387387 34.1025641"></polygon>
            <polygon id="Rectangle" fill="#89B659" points="46.0617761 8.97435897 55.4311454 34.1025641 36.6924067 34.1025641"></polygon>
            <polygon id="Rectangle" fill="#97CD5D" points="38.3680824 4.48717949 49.1465748 35 27.9279279 35"></polygon>
            <polygon id="Rectangle" fill="#97CD5D" points="14.7427611 14.3589744 22.5225225 35 7.20720721 35"></polygon>
            <polygon id="Rectangle" fill="#AADF70" points="24.7464607 12.5641026 32.3758044 35 17.1171171 35"></polygon>
            <polygon id="Rectangle" fill="#AADF70" points="53.4568855 12.5641026 61.0862291 35 45.8275418 35"></polygon>
            <polygon id="Rectangle" fill="#AADF70" points="7.62934363 12.5641026 15.2586873 35 9.23705556e-14 35"></polygon>
            <polygon id="Rectangle" fill="#89B659" points="71.2149292 0 82.4581725 32.3076923 59.971686 32.3076923"></polygon>
            <polygon id="Rectangle" fill="#89B659" points="50.1141141 15.2564103 56.984985 35 43.2432432 35"></polygon>
            <polygon id="Rectangle" fill="#89B659" points="58.5225225 8.07692308 68.4324324 34.1025641 48.6126126 34.1025641"></polygon>
            <polygon id="Rectangle" fill="#89B659" points="84.8005148 8.97435897 94.1698842 34.1025641 75.4311454 34.1025641"></polygon>
            <polygon id="Rectangle" fill="#97CD5D" points="77.1068211 4.48717949 87.8853135 35 66.6666667 35"></polygon>
            <polygon id="Rectangle" fill="#97CD5D" points="53.4814999 14.3589744 61.2612613 35 45.9459459 35"></polygon>
            <polygon id="Rectangle" fill="#AADF70" points="63.4851995 12.5641026 71.1145431 35 55.8558559 35"></polygon>
            <polygon id="Rectangle" fill="#AADF70" points="92.1956242 12.5641026 99.8249678 35 84.5662806 35"></polygon>
            <polygon id="Rectangle" fill="#AADF70" points="46.3680824 12.5641026 53.997426 35 38.7387387 35"></polygon>
        </g>
        <g id="Group" opacity="0.58640253" transform="translate(779.000000, 534.000000)">
            <polygon id="Rectangle" fill="#89B659" points="25.9809524 0 34.975547 25.8461538 16.9863578 25.8461538"></polygon>
            <polygon id="Rectangle" fill="#89B659" points="9.1003003 12.2051282 14.596997 28 3.6036036 28"></polygon>
            <polygon id="Rectangle" fill="#89B659" points="15.827027 6.46153846 23.754955 27.2820513 7.8990991 27.2820513"></polygon>
            <polygon id="Rectangle" fill="#89B659" points="36.8494208 7.17948718 44.3449163 27.2820513 29.3539254 27.2820513"></polygon>
            <polygon id="Rectangle" fill="#97CD5D" points="30.6944659 3.58974359 39.3172598 28 22.3423423 28"></polygon>
            <polygon id="Rectangle" fill="#97CD5D" points="11.7942089 11.4871795 18.018018 28 5.76576577 28"></polygon>
            <polygon id="Rectangle" fill="#AADF70" points="19.7971686 10.0512821 25.9006435 28 13.6936937 28"></polygon>
            <polygon id="Rectangle" fill="#AADF70" points="42.7655084 10.0512821 48.8689833 28 36.6620335 28"></polygon>
            <polygon id="Rectangle" fill="#AADF70" points="6.1034749 10.0512821 12.2069498 28 9.23705556e-14 28"></polygon>
            <polygon id="Rectangle" fill="#89B659" points="56.9719434 0 65.966538 25.8461538 47.9773488 25.8461538"></polygon>
            <polygon id="Rectangle" fill="#89B659" points="40.0912913 12.2051282 45.587988 28 34.5945946 28"></polygon>
            <polygon id="Rectangle" fill="#89B659" points="46.818018 6.46153846 54.7459459 27.2820513 38.8900901 27.2820513"></polygon>
            <polygon id="Rectangle" fill="#89B659" points="67.8404118 7.17948718 75.3359073 27.2820513 60.3449163 27.2820513"></polygon>
            <polygon id="Rectangle" fill="#97CD5D" points="61.6854569 3.58974359 70.3082508 28 53.3333333 28"></polygon>
            <polygon id="Rectangle" fill="#97CD5D" points="42.7851999 11.4871795 49.009009 28 36.7567568 28"></polygon>
            <polygon id="Rectangle" fill="#AADF70" points="50.7881596 10.0512821 56.8916345 28 44.6846847 28"></polygon>
            <polygon id="Rectangle" fill="#AADF70" points="73.7564994 10.0512821 79.8599743 28 67.6530245 28"></polygon>
            <polygon id="Rectangle" fill="#AADF70" points="37.0944659 10.0512821 43.1979408 28 30.990991 28"></polygon>
        </g>
        <g id="Group" opacity="0.378976004" transform="translate(853.000000, 541.000000)">
            <polygon id="Rectangle" fill="#89B659" points="18.1866667 0 24.4828829 18.4615385 11.8904505 18.4615385"></polygon>
            <polygon id="Rectangle" fill="#89B659" points="6.37021021 8.71794872 10.2178979 20 2.52252252 20"></polygon>
            <polygon id="Rectangle" fill="#89B659" points="11.0789189 4.61538462 16.6284685 19.4871795 5.52936937 19.4871795"></polygon>
            <polygon id="Rectangle" fill="#89B659" points="25.7945946 5.12820513 31.0414414 19.4871795 20.5477477 19.4871795"></polygon>
            <polygon id="Rectangle" fill="#97CD5D" points="21.4861261 2.56410256 27.5220819 20 15.6396396 20"></polygon>
            <polygon id="Rectangle" fill="#97CD5D" points="8.25594622 8.20512821 12.6126126 20 4.03603604 20"></polygon>
            <polygon id="Rectangle" fill="#AADF70" points="13.858018 7.17948718 18.1304505 20 9.58558559 20"></polygon>
            <polygon id="Rectangle" fill="#AADF70" points="29.9358559 7.17948718 34.2082883 20 25.6634234 20"></polygon>
            <polygon id="Rectangle" fill="#AADF70" points="4.27243243 7.17948718 8.54486486 20 9.23705556e-14 20"></polygon>
            <polygon id="Rectangle" fill="#89B659" points="39.8803604 0 46.1765766 18.4615385 33.5841441 18.4615385"></polygon>
            <polygon id="Rectangle" fill="#89B659" points="28.0639039 8.71794872 31.9115916 20 24.2162162 20"></polygon>
            <polygon id="Rectangle" fill="#89B659" points="32.7726126 4.61538462 38.3221622 19.4871795 27.2230631 19.4871795"></polygon>
            <polygon id="Rectangle" fill="#89B659" points="47.4882883 5.12820513 52.7351351 19.4871795 42.2414414 19.4871795"></polygon>
            <polygon id="Rectangle" fill="#97CD5D" points="43.1798198 2.56410256 49.2157756 20 37.3333333 20"></polygon>
            <polygon id="Rectangle" fill="#97CD5D" points="29.9496399 8.20512821 34.3063063 20 25.7297297 20"></polygon>
            <polygon id="Rectangle" fill="#AADF70" points="35.5517117 7.17948718 39.8241441 20 31.2792793 20"></polygon>
            <polygon id="Rectangle" fill="#AADF70" points="51.6295495 7.17948718 55.901982 20 47.3571171 20"></polygon>
            <polygon id="Rectangle" fill="#AADF70" points="25.9661261 7.17948718 30.2385586 20 21.6936937 20"></polygon>
        </g>
        <path d="M1197.57568,110 L1489.42525,593.934273 C1490.56612,595.826021 1489.95741,598.284444 1488.06566,599.425313 C1487.44222,599.801298 1486.72798,600 1485.99993,600 L880.999415,600 C878.790276,600 876.999415,598.209139 876.999415,596 C876.999415,595.215414 877.230152,594.448151 877.662909,593.793707 L1197.57568,110 Z" id="Rectangle" fill="#F4F6F7" fill-rule="nonzero"></path>
        <path d="M1197.98881,130 L1246,211.538562 C1225.75806,211.538562 1207.27735,216.924815 1190.55788,227.697321 C1173.83842,238.469827 1150.31912,244.904054 1120,247 L1197.98881,130 Z" id="Rectangle" fill="#FFFFFF" fill-rule="nonzero"></path>
        <polygon id="Rectangle" fill="#EEEFEF" fill-rule="nonzero" points="1119 280 1047.68136 418.203567 954.721129 526.297228 1036.86056 413"></polygon>
        <polygon id="Rectangle" fill="#EEEFEF" fill-rule="nonzero" points="1119.27887 282 1047.96023 420.203567 955 528.297228 1037.13944 415"></polygon>
        <polygon id="Rectangle" fill="#EEEFEF" fill-rule="nonzero" points="901 351 854.547927 440.780022 794 511 847.5 437.399673"></polygon>
        <path d="M1217,246 L1246.52626,253.587043 C1247.29937,253.785702 1247.88032,254.425047 1248.00426,255.213595 L1253,287 L1240.1784,259.687528 L1217,246 Z" id="Rectangle" fill="#D8D8D8" fill-rule="nonzero"></path>
        <path d="M1253,110 L1266.27751,113.524361 C1267.04689,113.728584 1267.62191,114.369624 1267.74164,115.156591 L1270,130 L1263.94536,116.676843 L1253,110 Z" id="Rectangle" fill="#D8D8D8" fill-rule="nonzero" transform="translate(1261.500000, 120.000000) scale(-1, 1) translate(-1261.500000, -120.000000) "></path>
        <path d="M1253,110 L1266.27751,113.524361 C1267.04689,113.728584 1267.62191,114.369624 1267.74164,115.156591 L1270,130 L1263.94536,116.676843 L1253,110 Z" id="Rectangle" fill="#D8D8D8" fill-rule="nonzero" transform="translate(1261.500000, 120.000000) scale(-1, 1) translate(-1261.500000, -120.000000) "></path>
        <path d="M1284.76588,171.570466 L1303.2144,177.641724 C1303.95017,177.883859 1304.47997,178.529069 1304.57431,179.297887 L1307.73789,205.077294 L1299.55628,182.756458 L1284.76588,171.570466 Z" id="Rectangle" fill="#D8D8D8" fill-rule="nonzero" transform="translate(1296.251885, 188.323880) scale(-1, 1) rotate(60.000000) translate(-1296.251885, -188.323880) "></path>
        <path d="M746.805714,600 L729.868571,600 L746.805714,600 Z" id="Rectangle" fill="#AADF70"></path>
        <g id="Group" transform="translate(1412.000000, 559.000000)">
            <polygon id="Rectangle" fill="#89B659" points="36.0485714 0 48.5285714 36 23.5685714 36"></polygon>
            <polygon id="Rectangle" fill="#89B659" points="12.6266667 17 20.2533333 39 5 39"></polygon>
            <polygon id="Rectangle" fill="#89B659" points="21.96 9 32.96 38 10.96 38"></polygon>
            <polygon id="Rectangle" fill="#89B659" points="51.1285714 10 61.5285714 38 40.7285714 38"></polygon>
            <polygon id="Rectangle" fill="#97CD5D" points="42.5885714 5 54.552698 39 31 39"></polygon>
            <polygon id="Rectangle" fill="#97CD5D" points="16.3644648 16 25 39 8 39"></polygon>
            <polygon id="Rectangle" fill="#AADF70" points="27.4685714 14 35.9371429 39 19 39"></polygon>
            <polygon id="Rectangle" fill="#AADF70" points="59.3371429 14 67.8057143 39 50.8685714 39"></polygon>
            <polygon id="Rectangle" fill="#AADF70" points="8.46857143 14 16.9371429 39 9.23705556e-14 39"></polygon>
            <polygon id="Rectangle" fill="#89B659" points="79.0485714 0 91.5285714 36 66.5685714 36"></polygon>
            <polygon id="Rectangle" fill="#89B659" points="55.6266667 17 63.2533333 39 48 39"></polygon>
            <polygon id="Rectangle" fill="#89B659" points="64.96 9 75.96 38 53.96 38"></polygon>
            <polygon id="Rectangle" fill="#89B659" points="94.1285714 10 104.528571 38 83.7285714 38"></polygon>
            <polygon id="Rectangle" fill="#97CD5D" points="85.5885714 5 97.552698 39 74 39"></polygon>
            <polygon id="Rectangle" fill="#97CD5D" points="59.3644648 16 68 39 51 39"></polygon>
            <polygon id="Rectangle" fill="#AADF70" points="70.4685714 14 78.9371429 39 62 39"></polygon>
            <polygon id="Rectangle" fill="#AADF70" points="102.337143 14 110.805714 39 93.8685714 39"></polygon>
            <polygon id="Rectangle" fill="#AADF70" points="51.4685714 14 59.9371429 39 43 39"></polygon>
        </g>
        <path d="M856.5,599.89948 L1542,599.89948 C1369.71227,562.063715 1129.04105,549.097221 819.986358,561 C510.931661,572.902779 237.602875,585.63673 0,599.201854 L856.5,599.89948 Z" id="Path-4" fill="#EAEFE3"></path>
        <path d="M1199.43221,572.947124 C1199.20197,572.807807 1198.86985,572.353972 1198.72315,571.974018 C1198.6335,571.748156 1198.62331,571.695384 1198.57237,571.302765 C1198.54181,571.068459 1198.51125,570.884814 1198.50106,570.895369 C1198.47661,570.920699 1198.40937,571.277434 1198.37066,571.58562 C1198.34213,571.824147 1198.3401,571.914914 1198.36047,572.277981 C1198.38492,572.687488 1198.38288,572.695932 1198.34213,572.757147 C1198.31768,572.793031 1198.2912,572.820472 1198.28101,572.820472 C1198.27286,572.820472 1198.23007,572.759257 1198.18932,572.683266 C1198.09967,572.514398 1198.04669,572.231543 1198.01817,571.754488 C1198.00187,571.452636 1198.00187,571.423084 1198.06096,571.091679 C1198.09356,570.89959 1198.15672,570.62729 1198.20155,570.48164 C1198.24637,570.338102 1198.27897,570.207229 1198.27286,570.190342 C1198.24433,570.11224 1198.08948,570.184009 1197.84294,570.392984 C1197.71458,570.500638 1197.67383,570.55341 1197.5801,570.7265 C1197.42525,571.011466 1197.33356,571.268991 1197.28262,571.553957 C1197.22761,571.85581 1197.18075,572.039454 1197.15426,572.039454 C1197.14407,572.039454 1197.09924,572.0289 1197.05849,572.016235 C1196.98514,571.993015 1196.98107,571.986683 1196.96884,571.883251 C1196.9342,571.58562 1197.00348,571.171891 1197.17056,570.690615 C1197.26632,570.414093 1197.29892,570.342324 1197.39876,570.207229 C1197.59029,569.947593 1197.86128,569.647851 1198.05077,569.483204 C1198.15061,569.39877 1198.36862,569.189794 1198.5357,569.020926 C1198.90449,568.649415 1199.11436,568.467881 1199.41183,568.261016 C1199.71746,568.049931 1200.04347,567.779741 1200.4306,567.418784 C1200.93183,566.952284 1201.00722,566.874182 1201.16818,566.646209 C1201.29043,566.473119 1201.32915,566.401349 1201.38212,566.23037 C1201.4188,566.118494 1201.44121,566.019284 1201.4351,566.012951 C1201.41472,565.989732 1201.14984,566.048836 1201.03574,566.101607 C1200.95424,566.139603 1200.86866,566.211372 1200.7077,566.37813 C1200.51821,566.578662 1200.46727,566.618768 1200.27982,566.717978 C1200.16368,566.779193 1199.99253,566.857295 1199.89677,566.891069 C1199.66653,566.971281 1199.49537,567.072603 1199.37108,567.203476 C1199.2631,567.319573 1199.20197,567.33646 1199.12047,567.277356 C1199.06749,567.239361 1199.06749,567.273134 1199.13881,566.625101 C1199.16937,566.346467 1199.19586,566.200818 1199.2631,565.970734 C1199.34663,565.683657 1199.35478,565.66677 1199.52797,565.4198 C1199.87232,564.92797 1200.02717,564.822427 1200.40615,564.818205 C1200.56304,564.818205 1200.64861,564.80554 1200.75456,564.769655 L1200.89719,564.723216 L1200.93387,564.586011 L1200.97054,564.446694 L1200.82995,564.022411 C1200.75049,563.790217 1200.63027,563.382821 1200.561,563.116853 C1200.40003,562.513147 1200.34502,562.39916 1200.16164,562.310504 C1199.82341,562.143746 1199.37108,562.082532 1198.77001,562.120527 C1198.5846,562.133192 1198.31565,562.160633 1198.17098,562.183853 C1198.02021,562.207072 1197.80219,562.223959 1197.6616,562.223959 C1197.44562,562.223959 1197.37635,562.213405 1197.08906,562.141636 C1196.90975,562.095197 1196.58986,562.031871 1196.38,562.000208 L1195.99491,561.941104 L1195.27974,561.998097 C1194.26709,562.080421 1193.11792,562.109973 1192.2805,562.07831 C1191.27396,562.040314 1190.85219,562.017095 1190.07997,561.960102 C1189.48094,561.915774 1189.29756,561.909441 1188.93081,561.924217 C1188.69242,561.932661 1188.32974,561.932661 1188.12802,561.924217 L1187.75923,561.90733 L1187.46583,561.791233 C1187.22336,561.692023 1187.10519,561.628697 1186.7853,561.419722 C1186.57136,561.278294 1186.36353,561.151643 1186.32278,561.136867 C1186.28203,561.122091 1186.07624,561.031324 1185.8623,560.938446 L1185.47517,560.765355 L1185.12268,560.402288 C1184.86595,560.136319 1184.70091,559.944231 1184.50734,559.680374 L1184.2445,559.321528 L1184.17319,558.76215 C1184.13448,558.453965 1184.08354,558.008573 1184.05909,557.770046 C1184.03668,557.531519 1184.01223,557.292992 1184.00611,557.23811 C1183.99592,557.160008 1184,557.136788 1184.02241,557.136788 C1184.03871,557.136788 1184.05909,557.162119 1184.07131,557.191671 C1184.08354,557.229666 1184.16911,557.295103 1184.36472,557.417533 L1184.63978,557.590623 L1184.81297,557.900919 L1184.98616,558.211216 L1184.99227,558.116227 C1184.99635,558.055012 1185.00654,558.023349 1185.02284,558.029682 C1185.03506,558.033904 1185.14305,558.202772 1185.26123,558.405415 L1185.47517,558.772704 L1185.49758,558.39275 C1185.52611,557.922028 1185.63002,557.38587 1185.82358,556.706173 C1185.89694,556.45287 1185.98659,556.123576 1186.02326,555.977927 L1186.0905,555.711959 L1186.06605,555.490318 C1186.03141,555.1758 1185.91731,554.802178 1185.7808,554.548875 C1185.69318,554.386339 1185.63206,554.306126 1185.50981,554.185807 C1185.3468,554.027493 1185.21233,553.949391 1184.68053,553.702421 C1184.42584,553.584212 1184.37287,553.541995 1184.25062,553.366794 L1184.15281,553.223256 L1184.19968,552.336695 C1184.22413,551.846975 1184.27099,550.97308 1184.30155,550.390482 L1184.35657,549.335053 L1184.29952,548.733458 C1184.26895,548.404164 1184.23432,547.990436 1184.22209,547.815234 L1184.19968,547.494384 L1184.25265,547.3614 C1184.33212,547.154535 1184.36675,547.152424 1184.47882,547.346624 C1184.51957,547.416282 1184.56032,547.464832 1184.56847,547.454277 C1184.58681,547.433169 1184.69072,546.928673 1184.69276,546.856904 C1184.69276,546.827352 1184.71925,546.719698 1184.74981,546.614155 L1184.80686,546.424178 L1185.05544,546.335522 C1185.27142,546.25742 1185.33458,546.244755 1185.54444,546.23209 C1185.75838,546.219425 1185.7971,546.221536 1185.91935,546.263753 L1186.05586,546.312302 L1186.05179,546.396737 C1186.04567,546.47695 1186.04975,546.485393 1186.10884,546.50228 C1186.15774,546.514945 1186.18015,546.538164 1186.2046,546.605712 L1186.2372,546.692257 L1186.03141,546.911787 C1185.91731,547.032105 1185.82155,547.127094 1185.81747,547.122872 C1185.81136,547.118651 1185.74208,547.14187 1185.66262,547.177755 C1185.40385,547.291741 1185.26734,547.458499 1185.17158,547.773017 C1185.12268,547.939775 1185.1186,547.984103 1185.06766,549.40049 C1185.01672,550.837985 1185.01672,550.865426 1185.04933,551.448023 C1185.08193,552.017955 1185.086,552.041174 1185.1349,552.112944 C1185.24289,552.267036 1185.30605,552.324029 1185.37737,552.324029 C1185.42627,552.324029 1185.64428,552.429572 1186.10884,552.674432 C1186.47355,552.86652 1186.77511,553.022724 1186.77918,553.018502 C1186.78326,553.01428 1186.69972,552.828525 1186.59581,552.604774 C1186.47559,552.347249 1186.37983,552.172048 1186.33297,552.121387 C1186.23924,552.022177 1186.23109,551.990514 1186.25961,551.849086 C1186.27999,551.743543 1186.31055,551.697104 1186.59377,551.346702 C1187.4862,550.238501 1187.72256,549.921872 1188.11784,549.316055 C1188.5722,548.617361 1188.75354,548.258515 1188.81671,547.933442 C1188.85135,547.751908 1188.92266,547.589372 1188.97767,547.568264 C1189.03472,547.545044 1189.09177,547.652698 1189.09177,547.783571 L1189.09381,547.901779 L1189.14882,547.834232 C1189.18346,547.794126 1189.2344,547.675918 1189.27515,547.540823 C1189.32609,547.380397 1189.37295,547.276965 1189.43408,547.19042 C1189.5115,547.080655 1189.54207,547.055325 1189.69488,546.983556 C1189.84973,546.909676 1189.89863,546.89701 1190.15332,546.869569 L1190.44061,546.837906 L1190.58528,546.892789 C1190.78496,546.966669 1190.86034,547.072212 1190.76254,547.135538 C1190.71568,547.1672 1190.70957,547.194642 1190.75032,547.194642 C1190.79514,547.194642 1190.86238,547.2643 1190.87461,547.323404 C1190.88683,547.371954 1190.87053,547.393062 1190.72791,547.511271 C1190.59139,547.625257 1190.39783,547.739243 1190.32244,547.751908 C1190.31021,547.754019 1190.27761,547.770906 1190.25112,547.789904 C1190.2226,547.806791 1190.12887,547.861673 1190.03922,547.908112 C1189.78861,548.036874 1189.60727,548.258515 1189.57263,548.473822 C1189.5604,548.543481 1189.50132,548.630026 1189.25681,548.938211 C1189.09177,549.145076 1188.71891,549.639017 1188.42958,550.033747 C1188.018,550.591014 1187.87537,550.8021 1187.78572,550.983634 C1187.59623,551.359367 1187.58401,551.435358 1187.64513,551.798426 L1187.66958,551.937742 L1187.855,552.072837 C1188.16674,552.294477 1188.75354,552.752534 1189.16309,553.090271 C1189.51762,553.38157 1189.57467,553.438563 1189.85788,553.780522 C1190.14925,554.133036 1190.17574,554.175253 1190.36523,554.542543 C1190.47525,554.755739 1190.56694,554.933051 1190.56898,554.937273 C1190.57102,554.939384 1190.62603,554.922497 1190.69327,554.899278 C1190.87257,554.833841 1190.87257,554.833841 1192.30087,554.582649 C1192.46795,554.555208 1192.6717,554.542543 1193.09551,554.534099 C1193.58655,554.525656 1193.7414,554.529877 1194.20596,554.574205 C1194.50344,554.601647 1195.07191,554.652307 1195.46922,554.688192 C1195.86654,554.724076 1196.30257,554.766294 1196.43705,554.78107 C1196.57153,554.797956 1196.68359,554.808511 1196.68766,554.8064 C1196.6897,554.802178 1196.63265,554.502436 1196.5593,554.137258 C1196.38407,553.269694 1196.17013,551.838532 1196.13142,551.279154 C1196.05196,550.135069 1195.86247,548.904438 1195.7015,548.49282 C1195.63019,548.307064 1195.62815,548.298621 1195.64241,548.112865 C1195.66686,547.773017 1195.6852,547.751908 1195.76467,547.992546 C1195.79319,548.081203 1195.82987,548.178302 1195.84617,548.207854 C1195.87265,548.256404 1195.87469,548.250071 1195.87673,548.093868 C1195.87673,548.003101 1195.89099,547.874338 1195.90729,547.806791 C1195.93582,547.688583 1195.93582,547.68225 1195.87673,547.498605 C1195.80134,547.270633 1195.77893,547.053214 1195.8156,546.880124 C1195.85635,546.683814 1195.89099,546.660594 1196.27405,546.569827 C1196.58171,546.498058 1196.61431,546.493836 1196.84048,546.506502 C1197.04016,546.517056 1197.09313,546.52761 1197.14203,546.563495 C1197.21131,546.614155 1197.21538,546.641597 1197.16037,546.736585 L1197.11758,546.810465 L1197.24187,546.818909 C1197.44155,546.833685 1197.43951,546.850572 1197.21946,547.084877 C1197.11351,547.196753 1196.99941,547.325515 1196.96884,547.369843 C1196.93828,547.41206 1196.9016,547.447945 1196.88734,547.447945 C1196.87308,547.447945 1196.8201,547.498605 1196.76917,547.55982 C1196.66118,547.690694 1196.62246,547.827899 1196.62858,548.070648 C1196.63061,548.150861 1196.6408,548.494931 1196.64895,548.830558 L1196.66729,549.442707 L1196.80177,550.135069 L1196.93624,550.82743 L1197.15222,551.296041 C1197.2704,551.553566 1197.46396,552.007401 1197.58214,552.302921 C1197.70031,552.598441 1197.79812,552.843301 1197.80219,552.847523 C1197.80423,552.851744 1197.94685,552.59633 1198.11801,552.281812 L1198.42771,551.71188 L1198.62943,551.038516 C1198.75779,550.60579 1198.89023,550.217392 1198.99618,549.955645 L1199.16122,549.54825 L1199.25902,548.809449 C1199.32626,548.298621 1199.3609,547.960884 1199.36905,547.711802 C1199.38535,547.287519 1199.40572,547.177755 1199.47907,547.150314 C1199.55446,547.120762 1199.58095,547.139759 1199.59521,547.230526 C1199.61559,547.355067 1199.62781,547.38673 1199.64615,547.374065 C1199.65634,547.367732 1199.71746,547.270633 1199.77859,547.160868 L1199.89269,546.960336 L1199.86824,546.770359 C1199.84583,546.607823 1199.84583,546.563495 1199.87435,546.438954 C1199.89269,546.360852 1199.91714,546.272196 1199.92937,546.242644 C1199.98845,546.077997 1200.4306,545.970343 1200.86866,546.01045 C1200.99703,546.023115 1201.11521,546.033669 1201.12743,546.033669 C1201.14169,546.033669 1201.16614,546.06111 1201.18244,546.094884 C1201.21097,546.151877 1201.21097,546.160321 1201.17022,546.215203 L1201.12539,546.272196 L1201.18244,546.261642 C1201.22319,546.253198 1201.25376,546.263753 1201.29247,546.299637 L1201.34748,546.348187 L1201.11317,546.590936 C1200.9848,546.72392 1200.85644,546.84635 1200.82791,546.861126 C1200.71178,546.922341 1200.55489,547.051103 1200.51821,547.110207 C1200.49784,547.146092 1200.44078,547.344513 1200.38985,547.549266 C1200.29408,547.950329 1200.24111,548.108644 1200.05365,548.587809 C1199.94567,548.857999 1199.91103,548.98465 1199.76025,549.674901 C1199.60336,550.379928 1199.58706,550.48336 1199.57484,550.751439 C1199.56465,550.941417 1199.53205,551.215828 1199.48111,551.521903 C1199.37312,552.165715 1199.20808,554.16681 1199.22846,554.582649 C1199.23661,554.743074 1199.25087,554.85495 1199.26513,554.869726 C1199.2794,554.882391 1199.43425,554.945717 1199.60947,555.011153 C1199.87843,555.110364 1199.96808,555.154692 1200.19017,555.300341 C1200.3328,555.39533 1200.56711,555.564198 1200.7077,555.671852 L1200.96443,555.870273 L1201.22727,556.286112 C1201.76518,557.14101 1201.99745,557.476637 1202.40496,557.991686 L1202.82061,558.519401 L1203.13032,559.101998 L1203.43798,559.686706 L1203.52967,560.041331 C1203.61117,560.36007 1203.62544,560.448727 1203.66007,560.873009 C1203.68249,561.134756 1203.70897,561.428165 1203.7212,561.527376 C1203.73139,561.626586 1203.74361,561.740572 1203.74769,561.780679 L1203.75176,561.854559 L1203.90458,561.888333 C1204.06554,561.924217 1204.24892,562.023428 1204.32431,562.114194 C1204.35079,562.150079 1204.37932,562.162744 1204.39969,562.154301 C1204.49342,562.116305 1204.579,562.344278 1204.58307,562.641909 L1204.58715,562.846663 L1204.4975,563.004977 C1204.41396,563.154848 1204.40784,563.173846 1204.39766,563.353269 C1204.38543,563.612904 1204.42007,563.815547 1204.50565,564.003413 C1204.54436,564.085737 1204.58511,564.210278 1204.59733,564.277825 C1204.60956,564.343262 1204.6279,564.398144 1204.63808,564.398144 C1204.64827,564.398144 1204.68291,564.374925 1204.71551,564.345373 C1204.79905,564.271493 1204.82146,564.277825 1204.82146,564.374925 C1204.82146,564.440361 1204.80924,564.465692 1204.76849,564.497354 C1204.71959,564.53535 1204.71347,564.552237 1204.71144,564.689443 C1204.7094,564.803429 1204.71551,564.841425 1204.73589,564.841425 C1204.77052,564.841425 1204.88259,564.955411 1204.88259,564.989185 C1204.88259,565.006072 1204.85406,565.010293 1204.78275,564.999739 C1204.68291,564.984963 1204.59733,565.014515 1204.59733,565.063065 C1204.59733,565.07573 1204.69717,565.098949 1204.82554,565.113725 L1205.05374,565.141167 L1205.22897,565.303703 C1205.46124,565.514789 1205.60998,565.749094 1205.77095,566.148046 C1205.83819,566.316915 1205.93599,566.523779 1205.98489,566.603992 C1206.06435,566.728533 1206.12548,566.912177 1206.12548,567.01561 C1206.12548,567.024053 1206.0888,567.047272 1206.04601,567.068381 C1205.96451,567.104266 1205.96248,567.104266 1205.828,567.049383 C1205.75465,567.01772 1205.5672,566.91851 1205.41234,566.825632 C1205.19229,566.694759 1205.09245,566.64832 1204.94983,566.612435 C1204.7257,566.553331 1204.43637,566.416125 1204.29782,566.302139 C1204.23873,566.253589 1204.18575,566.213483 1204.1776,566.213483 C1204.14297,566.213483 1204.55862,566.981836 1204.79701,567.35968 C1205.01503,567.70586 1205.25749,567.959164 1205.72816,568.334897 C1205.83004,568.415109 1205.99508,568.552315 1206.09491,568.640971 C1206.19679,568.729627 1206.39239,568.898496 1206.53298,569.014593 C1206.94252,569.358663 1207.3215,569.787168 1207.57823,570.196674 C1207.71067,570.409871 1207.71271,570.416204 1207.82477,570.861595 C1208.02649,571.680608 1208.05705,572.423631 1207.89812,572.647382 C1207.87164,572.685377 1207.84922,572.714929 1207.84719,572.714929 C1207.79829,572.714929 1207.7066,572.651604 1207.66788,572.590389 C1207.61491,572.508065 1207.60268,572.415187 1207.53137,571.627837 C1207.50284,571.302765 1207.34595,570.77505 1207.23797,570.637844 C1207.1911,570.57874 1207.13813,570.538634 1207.10145,570.53019 C1207.06681,570.521747 1207.03625,570.519636 1207.03421,570.523857 C1207.03014,570.525968 1207.00365,570.6294 1206.97513,570.75183 C1206.89362,571.098011 1206.86102,571.431527 1206.84472,572.064785 L1206.82842,572.651604 L1206.76322,572.719151 L1206.69802,572.786699 L1206.65523,572.689599 C1206.60633,572.575613 1206.56762,572.364527 1206.52483,571.986683 C1206.48612,571.661611 1206.50446,571.203554 1206.57373,570.724389 C1206.65116,570.175566 1206.62875,570.023584 1206.43926,569.7935 C1206.23754,569.54653 1205.89116,569.259453 1205.87282,569.320668 C1205.85652,569.371328 1205.73835,570.103797 1205.69556,570.414093 C1205.67315,570.582962 1205.62628,570.840486 1205.59368,570.988247 C1205.50403,571.399864 1205.16784,572.294868 1205.02114,572.510176 C1204.99465,572.550282 1204.96409,572.567169 1204.92334,572.567169 C1204.8724,572.567169 1204.86017,572.556615 1204.8398,572.482735 C1204.81127,572.381414 1204.8398,572.254762 1204.97835,571.860031 C1205.09857,571.520183 1205.17599,571.14445 1205.25953,570.509081 C1205.38382,569.561306 1205.39604,569.419878 1205.37159,569.215125 C1205.34103,568.959711 1205.28806,568.856279 1205.06393,568.609308 C1204.6116,568.111145 1204.41803,567.868397 1204.21835,567.553879 C1204.15315,567.450447 1204.0961,567.35968 1204.09407,567.355458 C1204.08999,567.349125 1204.04924,567.382899 1204.00441,567.429338 C1203.84345,567.591874 1203.57857,568.178693 1203.53782,568.467881 C1203.5093,568.649415 1203.51745,568.738071 1203.59283,569.088473 L1203.64581,569.335444 L1203.6071,569.457874 C1203.57042,569.573971 1203.56431,569.580303 1203.48688,569.595079 C1203.40946,569.609855 1203.40131,569.605634 1203.31369,569.508534 C1203.23423,569.421989 1203.21589,569.383994 1203.17718,569.219347 C1203.10994,568.947046 1203.08345,568.545982 1203.11198,568.26946 C1203.13235,568.058374 1203.1405,568.033044 1203.24646,567.832512 C1203.36056,567.610872 1203.6397,567.009277 1203.6397,566.979725 C1203.64174,566.971281 1203.61117,566.846741 1203.5745,566.703202 L1203.50726,566.443567 L1203.39519,566.447788 C1203.32388,566.45201 1203.26072,566.441456 1203.22201,566.420347 C1203.16495,566.388684 1203.14254,566.388684 1203.00807,566.416125 C1202.92453,566.433012 1202.75745,566.445678 1202.63927,566.445678 C1202.44775,566.445678 1202.41515,566.45201 1202.36625,566.492116 C1202.32346,566.52589 1202.28678,566.536444 1202.21343,566.532223 L1202.11767,566.528001 L1201.96078,566.7222 C1201.87316,566.827743 1201.76518,566.981836 1201.72035,567.064159 L1201.63681,567.21403 L1201.66126,567.380788 C1201.6796,567.517994 1201.70405,567.589763 1201.7937,567.762854 C1202.05654,568.273682 1202.12989,568.579756 1202.09118,569.010371 C1202.08099,569.139134 1202.05858,569.293227 1202.04228,569.352331 C1202.01375,569.462095 1201.92206,569.601412 1201.87928,569.601412 C1201.86705,569.601412 1201.83853,569.563417 1201.81204,569.516978 C1201.77333,569.443098 1201.76925,569.413546 1201.77944,569.270007 C1201.81611,568.78662 1201.57976,568.09848 1201.23746,567.691084 L1201.15799,567.598207 L1200.98888,567.762854 C1200.70566,568.037265 1200.15553,568.444661 1199.74803,568.678967 C1199.66245,568.727516 1199.52594,568.843614 1199.36293,569.008261 C1199.15307,569.221457 1199.10009,569.286894 1199.05119,569.40088 C1198.9921,569.533865 1198.9921,569.542308 1199.01248,569.69429 C1199.03286,569.827274 1199.04712,569.863159 1199.11436,569.947593 C1199.18363,570.032027 1199.21623,570.053136 1199.38331,570.11224 C1199.48926,570.150235 1199.65022,570.198785 1199.73988,570.222005 C1200.13923,570.325437 1200.7077,570.684283 1200.89515,570.950251 C1200.99499,571.089568 1201.05,571.228884 1201.0174,571.258436 C1201.00925,571.26688 1200.9685,571.285878 1200.92775,571.298543 C1200.86459,571.319651 1200.83606,571.31543 1200.71585,571.268991 C1200.63842,571.237328 1200.54266,571.184556 1200.50191,571.150783 C1200.21258,570.89748 1200.13516,570.844708 1199.95382,570.762385 C1199.74803,570.669507 1199.52594,570.616735 1199.24272,570.593516 C1199.08583,570.57874 1199.06953,570.580851 1199.0247,570.625179 C1198.9595,570.688505 1198.94117,570.872149 1198.97377,571.133896 C1199.02267,571.558179 1199.23457,572.050009 1199.5565,572.499622 C1199.7358,572.748703 1199.74803,572.771923 1199.74803,572.8648 C1199.74803,572.919683 1199.74191,572.970343 1199.73376,572.974565 C1199.72358,572.980898 1199.67671,572.989341 1199.62577,572.995674 C1199.54835,573.006228 1199.51779,572.999895 1199.43221,572.947124 Z" id="Path" fill="#A2907E" fill-rule="nonzero" transform="translate(1196.000158, 559.501003) scale(1, -1) translate(-1196.000158, -559.501003) "></path>
    </g>
</svg>