<svg viewBox="0 0 1053 600" xmlns="http://www.w3.org/2000/svg"><g fill="none" fill-rule="nonzero"><path d="m477.777398 226 221.980055 368.206777c1.14058 1.891923.531496 4.350252-1.360427 5.490832-.623325.375782-1.337367.57437-2.065203.57437h-458.520212c-2.209139 0-4-1.790861-4-4 0-.784369.23061-1.551429.663142-2.205761z" fill="#f8f9fa"/><path d="m478.073457 242 36.624774 62.067042-96.117631 26.993198z" fill="#fff"/><path d="m436.650643 356-39.456013 129.990464c-.22752.749577-.670125 1.415851-1.272896 1.916149l-83.412948 69.232446c-1.699894 1.410905-4.221695 1.176634-5.632601-.52326-1.127719-1.358703-1.231141-3.296105-.254481-4.767144z" fill="#eeefef" opacity=".375256"/><path d="m701.339744 570.656716 52.320512-91.313432" stroke="#f4f6f7" stroke-linecap="round" stroke-width="15"/><path d="m745.339744 541.656716 52.320512-91.313432" stroke="#f4f6f7" stroke-linecap="round" stroke-width="15"/><circle cx="889" cy="121" fill="#fff" r="51" stroke="#f4f6f7" stroke-width="10"/><path d="m708.152667 110.116093 291.678778 483.818705c1.140575 1.891923.531495 4.350252-1.360428 5.490832-.623324.375782-1.337366.57437-2.065202.57437h-604.641835c-2.209139 0-4-1.790861-4-4 0-.784369.230609-1.551429.663142-2.205761z" fill="#f4f6f7"/><path d="m708.536335 130.116093 47.9381 81.239438c-20.21113 0-38.663702 5.366493-55.357717 16.09948-16.694014 10.732987-40.177506 17.14361-70.450474 19.231867z" fill="#fff"/><path d="m654.479572 280-51.751648 170.499252c-.227519.749577-.670124 1.415851-1.272895 1.916149l-115.931887 96.223048c-1.699894 1.410905-4.221696 1.176634-5.632602-.52326-1.127718-1.358703-1.231141-3.296105-.254481-4.767144z" fill="#eeefef"/><g fill="#d8d8d8"><path d="m728 246 29.500082 7.494963c.774332.196732 1.357296.835421 1.482717 1.624447l4.989213 31.387418-12.811633-26.983941z"/><path d="m764 110 13.248585 3.435624c.772096.20022 1.351404.84007 1.474144 1.628204l2.249283 14.443-6.044677-12.994627z" transform="matrix(-1 0 0 1 1544.972012 0)"/><path d="m764 110 13.248585 3.435624c.772096.20022 1.351404.84007 1.474144 1.628204l2.249283 14.443-6.044677-12.994627z" transform="matrix(-1 0 0 1 1544.972012 0)"/><path d="m795.765879 171.570466 18.448524 6.071258c.735766.242135 1.265562.887345 1.359909 1.656163l3.163579 25.779407-8.18161-22.320836z" transform="matrix(-.5 .8660254 .8660254 .5 1047.784563 -604.9387)"/></g></g></svg>