<?xml version="1.0" encoding="UTF-8"?>
<svg viewBox="0 0 812 438" version="1.1" xmlns="http://www.w3.org/2000/svg" xmlns:xlink="http://www.w3.org/1999/xlink">
    <!-- Generator: Sketch 55 (78076) - https://sketchapp.com -->
    <title>mountains-mobile</title>
    <desc>Created with Sketch.</desc>
    <g id="mountains-mobile" stroke="none" stroke-width="1" fill="none" fill-rule="evenodd">
        <path d="M236.746197,134 L458.694751,501.93389 C459.835833,503.82551 459.2274,506.284001 457.33578,507.425082 C456.712247,507.801216 455.997865,508 455.269669,508 L-3.18559418,508 C-5.39473318,508 -7.18559418,506.209139 -7.18559418,504 C-7.18559418,503.215255 -6.95476363,502.447845 -6.52184306,501.793318 L236.746197,134 Z" id="Rectangle" fill="#F9FAFB" fill-rule="nonzero"></path>
        <polygon id="Rectangle" fill="#FFFFFF" fill-rule="nonzero" points="236.851571 150 273.33142 211.866765 177.59413 238.772863"></polygon>
        <path d="M460.339744,408.656716 L512.660256,317.343284" id="Line" stroke="#F4F6F7" stroke-width="15" stroke-linecap="round" fill-rule="nonzero"></path>
        <path d="M504.339744,379.656716 L556.660256,288.343284" id="Line" stroke="#F4F6F7" stroke-width="15" stroke-linecap="round" fill-rule="nonzero"></path>
        <g id="Group" opacity="0.58640253" transform="translate(126.000000, 400.000000)">
            <polygon id="Rectangle" fill="#89B659" points="25.9809524 0 34.975547 25.8461538 16.9863578 25.8461538"></polygon>
            <polygon id="Rectangle" fill="#89B659" points="9.1003003 12.2051282 14.596997 28 3.6036036 28"></polygon>
            <polygon id="Rectangle" fill="#89B659" points="15.827027 6.46153846 23.754955 27.2820513 7.8990991 27.2820513"></polygon>
            <polygon id="Rectangle" fill="#89B659" points="36.8494208 7.17948718 44.3449163 27.2820513 29.3539254 27.2820513"></polygon>
            <polygon id="Rectangle" fill="#97CD5D" points="30.6944659 3.58974359 39.3172598 28 22.3423423 28"></polygon>
            <polygon id="Rectangle" fill="#97CD5D" points="11.7942089 11.4871795 18.018018 28 5.76576577 28"></polygon>
            <polygon id="Rectangle" fill="#AADF70" points="19.7971686 10.0512821 25.9006435 28 13.6936937 28"></polygon>
            <polygon id="Rectangle" fill="#AADF70" points="42.7655084 10.0512821 48.8689833 28 36.6620335 28"></polygon>
            <polygon id="Rectangle" fill="#AADF70" points="6.1034749 10.0512821 12.2069498 28 9.23705556e-14 28"></polygon>
            <polygon id="Rectangle" fill="#89B659" points="56.9719434 0 65.966538 25.8461538 47.9773488 25.8461538"></polygon>
            <polygon id="Rectangle" fill="#89B659" points="40.0912913 12.2051282 45.587988 28 34.5945946 28"></polygon>
            <polygon id="Rectangle" fill="#89B659" points="46.818018 6.46153846 54.7459459 27.2820513 38.8900901 27.2820513"></polygon>
            <polygon id="Rectangle" fill="#89B659" points="67.8404118 7.17948718 75.3359073 27.2820513 60.3449163 27.2820513"></polygon>
            <polygon id="Rectangle" fill="#97CD5D" points="61.6854569 3.58974359 70.3082508 28 53.3333333 28"></polygon>
            <polygon id="Rectangle" fill="#97CD5D" points="42.7851999 11.4871795 49.009009 28 36.7567568 28"></polygon>
            <polygon id="Rectangle" fill="#AADF70" points="50.7881596 10.0512821 56.8916345 28 44.6846847 28"></polygon>
            <polygon id="Rectangle" fill="#AADF70" points="73.7564994 10.0512821 79.8599743 28 67.6530245 28"></polygon>
            <polygon id="Rectangle" fill="#AADF70" points="37.0944659 10.0512821 43.1979408 28 30.990991 28"></polygon>
        </g>
        <g id="Group" opacity="0.378976004" transform="translate(200.000000, 407.000000)">
            <polygon id="Rectangle" fill="#89B659" points="18.1866667 0 24.4828829 18.4615385 11.8904505 18.4615385"></polygon>
            <polygon id="Rectangle" fill="#89B659" points="6.37021021 8.71794872 10.2178979 20 2.52252252 20"></polygon>
            <polygon id="Rectangle" fill="#89B659" points="11.0789189 4.61538462 16.6284685 19.4871795 5.52936937 19.4871795"></polygon>
            <polygon id="Rectangle" fill="#89B659" points="25.7945946 5.12820513 31.0414414 19.4871795 20.5477477 19.4871795"></polygon>
            <polygon id="Rectangle" fill="#97CD5D" points="21.4861261 2.56410256 27.5220819 20 15.6396396 20"></polygon>
            <polygon id="Rectangle" fill="#97CD5D" points="8.25594622 8.20512821 12.6126126 20 4.03603604 20"></polygon>
            <polygon id="Rectangle" fill="#AADF70" points="13.858018 7.17948718 18.1304505 20 9.58558559 20"></polygon>
            <polygon id="Rectangle" fill="#AADF70" points="29.9358559 7.17948718 34.2082883 20 25.6634234 20"></polygon>
            <polygon id="Rectangle" fill="#AADF70" points="4.27243243 7.17948718 8.54486486 20 9.23705556e-14 20"></polygon>
            <polygon id="Rectangle" fill="#89B659" points="39.8803604 0 46.1765766 18.4615385 33.5841441 18.4615385"></polygon>
            <polygon id="Rectangle" fill="#89B659" points="28.0639039 8.71794872 31.9115916 20 24.2162162 20"></polygon>
            <polygon id="Rectangle" fill="#89B659" points="32.7726126 4.61538462 38.3221622 19.4871795 27.2230631 19.4871795"></polygon>
            <polygon id="Rectangle" fill="#89B659" points="47.4882883 5.12820513 52.7351351 19.4871795 42.2414414 19.4871795"></polygon>
            <polygon id="Rectangle" fill="#97CD5D" points="43.1798198 2.56410256 49.2157756 20 37.3333333 20"></polygon>
            <polygon id="Rectangle" fill="#97CD5D" points="29.9496399 8.20512821 34.3063063 20 25.7297297 20"></polygon>
            <polygon id="Rectangle" fill="#AADF70" points="35.5517117 7.17948718 39.8241441 20 31.2792793 20"></polygon>
            <polygon id="Rectangle" fill="#AADF70" points="51.6295495 7.17948718 55.901982 20 47.3571171 20"></polygon>
            <polygon id="Rectangle" fill="#AADF70" points="25.9661261 7.17948718 30.2385586 20 21.6936937 20"></polygon>
        </g>
        <path d="M467.575681,18 L759.425248,501.934273 C760.566118,503.826021 759.95741,506.284444 758.065662,507.425313 C757.442217,507.801298 756.727979,508 755.999935,508 L150.999415,508 C148.790276,508 146.999415,506.209139 146.999415,504 C146.999415,503.215414 147.230152,502.448151 147.662909,501.793707 L467.575681,18 Z" id="Rectangle" fill="#F4F6F7" fill-rule="nonzero"></path>
        <path d="M467.988813,38 L516,119.538562 C495.758056,119.538562 477.277351,124.924815 460.557884,135.697321 C443.838418,146.469827 420.319123,152.904054 390,155 L467.988813,38 Z" id="Rectangle" fill="#FFFFFF" fill-rule="nonzero"></path>
        <polygon id="Rectangle" fill="#EEEFEF" fill-rule="nonzero" points="389 188 317.802431 326.036784 225 434 307 320.839497"></polygon>
        <polygon id="Rectangle" fill="#EEEFEF" fill-rule="nonzero" points="389 190 317.802431 328.036784 225 436 307 322.839497"></polygon>
        <polygon id="Rectangle" fill="#EEEFEF" fill-rule="nonzero" points="171 259 124.547927 348.780022 64 419 117.5 345.399673"></polygon>
        <path d="M487,154 L516.526258,161.587043 C517.299371,161.785702 517.880324,162.425047 518.004257,163.213595 L523,195 L510.178399,167.687528 L487,154 Z" id="Rectangle" fill="#D8D8D8" fill-rule="nonzero"></path>
        <path d="M513,18 L526.277506,21.5243608 C527.046886,21.7285841 527.62191,22.3696238 527.741643,23.1565915 L530,38 L523.945355,24.6768431 L513,18 Z" id="Rectangle" fill="#D8D8D8" fill-rule="nonzero" transform="translate(521.500000, 28.000000) scale(-1, 1) translate(-521.500000, -28.000000) "></path>
        <path d="M554.765879,79.570466 L573.214403,85.641724 C573.950169,85.8838588 574.479965,86.5290695 574.574312,87.297887 L577.737891,113.077294 L569.556281,90.7564576 L554.765879,79.570466 Z" id="Rectangle" fill="#D8D8D8" fill-rule="nonzero" transform="translate(566.251885, 96.323880) scale(-1, 1) rotate(60.000000) translate(-566.251885, -96.323880) "></path>
        <g id="Group" transform="translate(682.000000, 397.000000)">
            <polygon id="Rectangle" fill="#89B659" points="36.0485714 0 48.5285714 36 23.5685714 36"></polygon>
            <polygon id="Rectangle" fill="#89B659" points="12.6266667 17 20.2533333 39 5 39"></polygon>
            <polygon id="Rectangle" fill="#89B659" points="21.96 9 32.96 38 10.96 38"></polygon>
            <polygon id="Rectangle" fill="#89B659" points="51.1285714 10 61.5285714 38 40.7285714 38"></polygon>
            <polygon id="Rectangle" fill="#97CD5D" points="42.5885714 5 54.552698 39 31 39"></polygon>
            <polygon id="Rectangle" fill="#97CD5D" points="16.3644648 16 25 39 8 39"></polygon>
            <polygon id="Rectangle" fill="#AADF70" points="27.4685714 14 35.9371429 39 19 39"></polygon>
            <polygon id="Rectangle" fill="#AADF70" points="59.3371429 14 67.8057143 39 50.8685714 39"></polygon>
            <polygon id="Rectangle" fill="#AADF70" points="8.46857143 14 16.9371429 39 9.23705556e-14 39"></polygon>
            <polygon id="Rectangle" fill="#89B659" points="79.0485714 0 91.5285714 36 66.5685714 36"></polygon>
            <polygon id="Rectangle" fill="#89B659" points="55.6266667 17 63.2533333 39 48 39"></polygon>
            <polygon id="Rectangle" fill="#89B659" points="64.96 9 75.96 38 53.96 38"></polygon>
            <polygon id="Rectangle" fill="#89B659" points="94.1285714 10 104.528571 38 83.7285714 38"></polygon>
            <polygon id="Rectangle" fill="#97CD5D" points="85.5885714 5 97.552698 39 74 39"></polygon>
            <polygon id="Rectangle" fill="#97CD5D" points="59.3644648 16 68 39 51 39"></polygon>
            <polygon id="Rectangle" fill="#AADF70" points="70.4685714 14 78.9371429 39 62 39"></polygon>
            <polygon id="Rectangle" fill="#AADF70" points="102.337143 14 110.805714 39 93.8685714 39"></polygon>
            <polygon id="Rectangle" fill="#AADF70" points="51.4685714 14 59.9371429 39 43 39"></polygon>
        </g>
        <path d="M454.579767,438 L812,438 C722.169043,400.315068 596.682885,387.400265 435.541525,399.255593 C274.400165,411.110922 131.886324,423.794109 8,437.305155 L454.579767,438 Z" id="Path-4" fill="#EAEFE3"></path>
        <g id="Group" opacity="0.83765811" transform="translate(40.000000, 399.000000)">
            <polygon id="Rectangle" fill="#89B659" points="32.4761905 0 43.7194337 32.3076923 21.2329472 32.3076923"></polygon>
            <polygon id="Rectangle" fill="#89B659" points="11.3753754 15.2564103 18.2462462 35 4.5045045 35"></polygon>
            <polygon id="Rectangle" fill="#89B659" points="19.7837838 8.07692308 29.6936937 34.1025641 9.87387387 34.1025641"></polygon>
            <polygon id="Rectangle" fill="#89B659" points="46.0617761 8.97435897 55.4311454 34.1025641 36.6924067 34.1025641"></polygon>
            <polygon id="Rectangle" fill="#97CD5D" points="38.3680824 4.48717949 49.1465748 35 27.9279279 35"></polygon>
            <polygon id="Rectangle" fill="#97CD5D" points="14.7427611 14.3589744 22.5225225 35 7.20720721 35"></polygon>
            <polygon id="Rectangle" fill="#AADF70" points="24.7464607 12.5641026 32.3758044 35 17.1171171 35"></polygon>
            <polygon id="Rectangle" fill="#AADF70" points="53.4568855 12.5641026 61.0862291 35 45.8275418 35"></polygon>
            <polygon id="Rectangle" fill="#AADF70" points="7.62934363 12.5641026 15.2586873 35 9.23705556e-14 35"></polygon>
            <polygon id="Rectangle" fill="#89B659" points="71.2149292 0 82.4581725 32.3076923 59.971686 32.3076923"></polygon>
            <polygon id="Rectangle" fill="#89B659" points="50.1141141 15.2564103 56.984985 35 43.2432432 35"></polygon>
            <polygon id="Rectangle" fill="#89B659" points="58.5225225 8.07692308 68.4324324 34.1025641 48.6126126 34.1025641"></polygon>
            <polygon id="Rectangle" fill="#89B659" points="84.8005148 8.97435897 94.1698842 34.1025641 75.4311454 34.1025641"></polygon>
            <polygon id="Rectangle" fill="#97CD5D" points="77.1068211 4.48717949 87.8853135 35 66.6666667 35"></polygon>
            <polygon id="Rectangle" fill="#97CD5D" points="53.4814999 14.3589744 61.2612613 35 45.9459459 35"></polygon>
            <polygon id="Rectangle" fill="#AADF70" points="63.4851995 12.5641026 71.1145431 35 55.8558559 35"></polygon>
            <polygon id="Rectangle" fill="#AADF70" points="92.1956242 12.5641026 99.8249678 35 84.5662806 35"></polygon>
            <polygon id="Rectangle" fill="#AADF70" points="46.3680824 12.5641026 53.997426 35 38.7387387 35"></polygon>
        </g>
        <path d="M454.579767,438 L812,438 C722.169043,400.315068 596.682885,387.400265 435.541525,399.255593 C274.400165,411.110922 131.886324,423.794109 8,437.305155 L454.579767,438 Z" id="Path-4" fill="#EAEFE3"></path>
        <path d="M469.432243,410.947156 C469.20199,410.807829 468.869855,410.353959 468.723145,409.973975 C468.633489,409.748096 468.623301,409.69532 468.57236,409.30267 C468.541795,409.068347 468.51123,408.884688 468.501042,408.895243 C468.476591,408.920575 468.409349,409.277338 468.370633,409.585547 C468.342107,409.824093 468.340069,409.914867 468.360445,410.277962 C468.384897,410.687501 468.382859,410.695945 468.342107,410.757164 C468.317655,410.793052 468.291166,410.820495 468.280977,410.820495 C468.272827,410.820495 468.230036,410.759275 468.189284,410.683279 C468.099628,410.514397 468.046649,410.23152 468.018122,409.754429 C468.001821,409.452553 468.001821,409.422999 468.060912,409.091568 C468.093515,408.899465 468.156681,408.627143 468.201509,408.481483 C468.246338,408.337933 468.27894,408.20705 468.272827,408.190162 C468.2443,408.112054 468.089439,408.183829 467.842885,408.39282 C467.714514,408.500482 467.673761,408.553258 467.58003,408.726361 C467.425169,409.011349 467.333476,409.268894 467.282535,409.553882 C467.227518,409.855758 467.180653,410.039417 467.154164,410.039417 C467.143975,410.039417 467.099147,410.028862 467.058395,410.016196 C466.98504,409.992974 466.980964,409.986641 466.968738,409.883201 C466.934099,409.585547 467.003378,409.171787 467.170465,408.690474 C467.266234,408.41393 467.298836,408.342155 467.39868,408.20705 C467.590218,407.947394 467.861224,407.647629 468.050724,407.48297 C468.150569,407.398529 468.368596,407.189538 468.535682,407.020656 C468.904495,406.649116 469.114371,406.467568 469.411866,406.260688 C469.717512,406.049586 470.043534,405.779375 470.430685,405.41839 C470.931944,404.951855 471.007337,404.873747 471.16831,404.645756 C471.290569,404.472653 471.329284,404.400878 471.382262,404.229885 C471.41894,404.118001 471.441354,404.018783 471.435241,404.01245 C471.414865,403.989229 471.149972,404.048337 471.035864,404.101113 C470.954358,404.139111 470.868778,404.210886 470.707804,404.377657 C470.518304,404.578204 470.467363,404.618313 470.2799,404.717531 C470.163755,404.778751 469.992593,404.856859 469.896824,404.890635 C469.666571,404.970854 469.49541,405.072183 469.371114,405.203066 C469.263119,405.319172 469.20199,405.33606 469.120484,405.276952 C469.067506,405.238953 469.067506,405.27273 469.138823,404.624646 C469.169388,404.345991 469.195877,404.200331 469.263119,403.970229 C469.346662,403.68313 469.354813,403.666242 469.528012,403.419253 C469.872373,402.927385 470.027233,402.821834 470.406234,402.817612 C470.563132,402.817612 470.648713,402.804945 470.75467,402.769058 L470.897305,402.722616 L470.933982,402.585399 L470.97066,402.446072 L470.830063,402.021756 C470.750595,401.789544 470.630374,401.382117 470.561094,401.116128 C470.400121,400.512376 470.345105,400.398381 470.161717,400.309718 C469.823469,400.142947 469.371114,400.081727 468.77001,400.119726 C468.584585,400.132392 468.315617,400.159835 468.170945,400.183056 C468.02016,400.206278 467.802132,400.223166 467.661535,400.223166 C467.445546,400.223166 467.376266,400.212611 467.088959,400.140836 C466.909647,400.094393 466.589738,400.031063 466.379861,399.999397 L465.994747,399.940289 L465.279537,399.997286 C464.26683,400.079616 463.117603,400.109171 462.280133,400.077505 C461.27354,400.039507 460.851749,400.016286 460.079484,399.959288 C459.480419,399.914957 459.297031,399.908624 458.930256,399.923401 C458.691853,399.931845 458.329153,399.931845 458.127427,399.923401 L457.758615,399.906512 L457.465195,399.790406 C457.222716,399.691188 457.104533,399.627858 456.784624,399.418866 C456.570672,399.277428 456.362832,399.150767 456.32208,399.13599 C456.281327,399.121212 456.075525,399.030438 455.861573,398.937553 L455.474422,398.76445 L455.121911,398.401354 C454.865168,398.135365 454.70012,397.943262 454.506544,397.679385 L454.243689,397.320511 L454.172372,396.76109 C454.133656,396.452881 454.082715,396.007455 454.058264,395.76891 C454.03585,395.530364 454.011398,395.291819 454.005285,395.236932 C453.995097,395.158825 453.999172,395.135603 454.021586,395.135603 C454.037887,395.135603 454.058264,395.160936 454.07049,395.19049 C454.082715,395.228488 454.168296,395.29393 454.36391,395.416369 L454.638991,395.589473 L454.81219,395.899793 L454.985389,396.210113 L454.991502,396.115117 C454.995577,396.053898 455.005766,396.022232 455.022067,396.028565 C455.034292,396.032788 455.142287,396.201669 455.26047,396.404327 L455.474422,396.771645 L455.496836,396.391661 C455.525363,395.920903 455.629283,395.384704 455.822858,394.704955 C455.896213,394.451632 455.985869,394.122313 456.022547,393.976652 L456.089789,393.710664 L456.065337,393.489006 C456.030697,393.174464 455.91659,392.800813 455.780068,392.547491 C455.69245,392.384942 455.63132,392.304723 455.509062,392.184395 C455.346051,392.026068 455.211567,391.94796 454.679743,391.700971 C454.425039,391.582754 454.37206,391.540533 454.249802,391.365318 L454.151995,391.221769 L454.198861,390.33514 C454.223312,389.845383 454.270178,388.97142 454.300743,388.388778 L454.355759,387.333267 L454.298705,386.731626 C454.268141,386.402306 454.233501,385.988546 454.221275,385.813331 L454.198861,385.492456 L454.251839,385.359461 C454.331307,385.152581 454.365947,385.15047 454.478017,385.344684 C454.51877,385.414348 454.559523,385.462902 454.567673,385.452346 C454.586012,385.431236 454.689932,384.926702 454.691969,384.854927 C454.691969,384.825373 454.718459,384.717711 454.749023,384.61216 L454.806077,384.422168 L455.054669,384.333505 C455.270658,384.255397 455.333825,384.242731 455.543702,384.230065 C455.757654,384.217399 455.796369,384.21951 455.918627,384.26173 L456.055149,384.310284 L456.051074,384.394725 C456.044961,384.474943 456.049036,384.483387 456.108128,384.500276 C456.157031,384.512942 456.179445,384.536163 456.203897,384.603716 L456.236499,384.690268 L456.030697,384.909814 C455.91659,385.030142 455.820821,385.125138 455.816745,385.120916 C455.810633,385.116694 455.741353,385.139915 455.661885,385.175803 C455.403105,385.289798 455.266583,385.456568 455.170814,385.771111 C455.121911,385.937881 455.117836,385.982213 455.066895,387.398708 C455.015954,388.836314 455.015954,388.863758 455.048556,389.4464 C455.081158,390.016375 455.085233,390.039597 455.134137,390.111371 C455.242132,390.265476 455.305298,390.322474 455.376616,390.322474 C455.425519,390.322474 455.643546,390.428025 456.108128,390.672903 C456.472865,390.865006 456.774435,391.021222 456.778511,391.017 C456.782586,391.012778 456.699043,390.827008 456.595123,390.60324 C456.474903,390.345695 456.379134,390.17048 456.332268,390.119816 C456.238537,390.020598 456.230386,389.988932 456.258913,389.847494 C456.279289,389.741943 456.309854,389.6955 456.593086,389.345071 C457.485571,388.236784 457.721937,387.920131 458.117239,387.314268 C458.571632,386.615519 458.752982,386.256646 458.816149,385.931548 C458.850788,385.75 458.922106,385.587452 458.977122,385.566342 C459.034176,385.54312 459.09123,385.650782 459.09123,385.781666 L459.093267,385.899883 L459.148284,385.83233 C459.182923,385.792221 459.233864,385.674004 459.274617,385.538898 C459.325558,385.378461 459.372424,385.275021 459.433553,385.188469 C459.510983,385.078696 459.541548,385.053363 459.694371,384.981589 C459.849231,384.907703 459.898134,384.895037 460.152839,384.867593 L460.440146,384.835928 L460.584818,384.890815 C460.784507,384.9647 460.8599,385.070251 460.762093,385.133582 C460.715227,385.165247 460.709114,385.192691 460.749867,385.192691 C460.794695,385.192691 460.861937,385.262354 460.874163,385.321463 C460.886389,385.370017 460.870088,385.391127 460.727453,385.509344 C460.590931,385.623339 460.397356,385.737334 460.321963,385.75 C460.309737,385.752112 460.277135,385.769 460.250646,385.787999 C460.222119,385.804887 460.128388,385.859774 460.038731,385.906216 C459.788102,386.034988 459.606752,386.256646 459.572112,386.47197 C459.559887,386.541634 459.500795,386.628186 459.256278,386.936395 C459.09123,387.143275 458.718342,387.637254 458.428997,388.032015 C458.017395,388.589325 457.87476,388.800427 457.785104,388.981975 C457.595603,389.357737 457.583378,389.433733 457.644507,389.796829 L457.668958,389.936157 L457.854383,390.071262 C458.166142,390.292919 458.752982,390.751011 459.162547,391.088775 C459.517096,391.380096 459.57415,391.437093 459.857382,391.779079 C460.148764,392.131619 460.175253,392.17384 460.364754,392.541158 C460.474786,392.754371 460.56648,392.931697 460.568517,392.935919 C460.570555,392.93803 460.625571,392.921141 460.692813,392.89792 C460.872125,392.832479 460.872125,392.832479 462.30051,392.581267 C462.467596,392.553824 462.67136,392.541158 463.095189,392.532713 C463.586259,392.524269 463.74112,392.528491 464.205701,392.572823 C464.503196,392.600266 465.071697,392.650931 465.469037,392.686818 C465.866376,392.722705 466.302431,392.764926 466.436915,392.779703 C466.571399,392.796591 466.683469,392.807146 466.687544,392.805035 C466.689582,392.800813 466.632528,392.501048 466.559173,392.135841 C466.383936,391.268211 466.169984,389.836939 466.131269,389.277518 C466.051801,388.133344 465.862301,386.902618 465.701328,386.490969 C465.63001,386.305199 465.627973,386.296755 465.642236,386.110985 C465.666688,385.771111 465.685026,385.75 465.764494,385.990657 C465.793021,386.07932 465.829699,386.176427 465.846,386.205981 C465.872489,386.254535 465.874527,386.248202 465.876564,386.091986 C465.876564,386.001212 465.890828,385.87244 465.907129,385.804887 C465.935656,385.68667 465.935656,385.680337 465.876564,385.496678 C465.801172,385.268688 465.778758,385.051252 465.815435,384.878149 C465.856188,384.681823 465.890828,384.658602 466.273904,384.567828 C466.581587,384.496054 466.614189,384.491832 466.840367,384.504498 C467.040056,384.515053 467.093034,384.525608 467.141938,384.561495 C467.211217,384.61216 467.215293,384.639603 467.160276,384.734599 L467.117486,384.808485 L467.241782,384.816929 C467.44147,384.831706 467.439433,384.848594 467.219368,385.082918 C467.113411,385.194802 466.999303,385.323574 466.968738,385.367906 C466.938174,385.410126 466.901496,385.446013 466.887233,385.446013 C466.872969,385.446013 466.819991,385.496678 466.76905,385.557898 C466.661055,385.688781 466.62234,385.825997 466.628453,386.068765 C466.630491,386.148984 466.640679,386.49308 466.648829,386.828733 L466.667168,387.440929 L466.801652,388.133344 L466.936136,388.825759 L467.152126,389.294406 C467.270309,389.551951 467.463885,390.00582 467.582068,390.301363 C467.700251,390.596906 467.798057,390.841785 467.802132,390.846007 C467.80417,390.850229 467.946805,390.594795 468.117966,390.280253 L468.427687,389.710277 L468.629413,389.036861 C468.757785,388.604102 468.890231,388.215674 468.996188,387.953907 L469.161237,387.54648 L469.259044,386.807622 C469.326286,386.296755 469.360926,385.958992 469.369076,385.709891 C469.385377,385.285576 469.405754,385.175803 469.479109,385.148359 C469.554501,385.118805 469.58099,385.137804 469.595254,385.228578 C469.61563,385.353128 469.627856,385.384794 469.646195,385.372128 C469.656383,385.365795 469.717512,385.268688 469.778641,385.158914 L469.892749,384.958367 L469.868297,384.768375 C469.845883,384.605827 469.845883,384.561495 469.87441,384.436945 C469.892749,384.358837 469.917201,384.270174 469.929427,384.24062 C469.988518,384.07596 470.430685,383.968298 470.868778,384.008408 C470.997149,384.021074 471.115332,384.031629 471.127558,384.031629 C471.141821,384.031629 471.166273,384.059072 471.182574,384.092848 C471.211101,384.149846 471.211101,384.15829 471.170348,384.213177 L471.12552,384.270174 L471.182574,384.259619 C471.223327,384.251175 471.253891,384.26173 471.292606,384.297618 L471.347623,384.346171 L471.113294,384.588939 C470.984923,384.721933 470.856552,384.844372 470.828025,384.859149 C470.71188,384.920369 470.554981,385.049141 470.518304,385.10825 C470.497928,385.144137 470.440874,385.342573 470.389933,385.547342 C470.294164,385.948437 470.241185,386.106763 470.053722,386.585965 C469.945728,386.856176 469.911088,386.982837 469.760303,387.673141 C469.603404,388.378223 469.587103,388.481663 469.574878,388.749762 C469.564689,388.939754 469.532087,389.214187 469.481146,389.520285 C469.373151,390.164147 469.208103,392.165396 469.228479,392.581267 C469.23663,392.741705 469.250893,392.853589 469.265157,392.868366 C469.27942,392.881032 469.43428,392.944363 469.609517,393.009804 C469.878486,393.109022 469.968142,393.153354 470.190244,393.299014 C470.332879,393.39401 470.567207,393.562892 470.707804,393.670554 L470.964547,393.86899 L471.227402,394.284862 C471.765338,395.139825 471.997629,395.475478 472.405157,395.990567 L472.820835,396.518323 L473.130556,397.100965 L473.438239,397.685718 L473.529933,398.040369 C473.611438,398.359134 473.625702,398.447796 473.660342,398.872112 C473.682756,399.133879 473.709245,399.427311 473.721471,399.526529 C473.731659,399.625747 473.743885,399.739742 473.74796,399.779851 L473.752036,399.853737 L473.904858,399.887513 C474.065832,399.923401 474.249219,400.022619 474.324612,400.113393 C474.351101,400.14928 474.379628,400.161946 474.400004,400.153502 C474.493736,400.115504 474.579317,400.343494 474.583392,400.641148 L474.587467,400.845917 L474.497811,401.004244 C474.414268,401.154126 474.408155,401.173126 474.397967,401.352562 C474.385741,401.612218 474.420381,401.814876 474.505962,402.002757 C474.544677,402.085087 474.585429,402.209637 474.597655,402.27719 C474.609881,402.342632 474.62822,402.397518 474.638408,402.397518 C474.648596,402.397518 474.683236,402.374297 474.715838,402.344743 C474.799381,402.270857 474.821795,402.27719 474.821795,402.374297 C474.821795,402.439739 474.80957,402.465071 474.768817,402.496736 C474.719914,402.534735 474.713801,402.551623 474.711763,402.688839 C474.709725,402.802834 474.715838,402.840833 474.736215,402.840833 C474.770855,402.840833 474.882925,402.954828 474.882925,402.988604 C474.882925,403.005492 474.854398,403.009714 474.78308,402.999159 C474.683236,402.984382 474.597655,403.013937 474.597655,403.06249 C474.597655,403.075156 474.6975,403.098377 474.825871,403.113155 L475.054086,403.140598 L475.229323,403.303147 C475.461614,403.514249 475.610361,403.748572 475.771335,404.147555 C475.838577,404.316437 475.936383,404.523317 475.985287,404.603536 C476.064755,404.728086 476.125884,404.911745 476.125884,405.015185 C476.125884,405.023629 476.089206,405.04685 476.046416,405.067961 C475.96491,405.103848 475.962873,405.103848 475.828389,405.048962 C475.755034,405.017296 475.567571,404.918078 475.412711,404.825193 C475.192646,404.69431 475.092801,404.647867 474.950167,404.61198 C474.726026,404.552871 474.436682,404.415655 474.298123,404.30166 C474.239031,404.253106 474.186052,404.212997 474.177902,404.212997 C474.143262,404.212997 474.55894,404.981409 474.797344,405.359282 C475.015371,405.705489 475.25785,405.958812 475.728544,406.334574 C475.830426,406.414793 475.995475,406.552009 476.095319,406.640672 C476.197201,406.729335 476.392814,406.898217 476.533411,407.014323 C476.942977,407.358419 477.321977,407.786957 477.57872,408.196495 C477.711166,408.409708 477.713204,408.416041 477.825274,408.861467 C478.027,409.680543 478.057565,410.423623 477.898629,410.647391 C477.87214,410.68539 477.849726,410.714944 477.847688,410.714944 C477.798785,410.714944 477.707091,410.651613 477.668376,410.590394 C477.615397,410.508064 477.603171,410.415179 477.531854,409.627768 C477.503327,409.30267 477.346429,408.774915 477.238434,408.637699 C477.191569,408.57859 477.13859,408.538481 477.101912,408.530036 C477.067273,408.521592 477.036708,408.519481 477.03467,408.523703 C477.030595,408.525814 477.004106,408.629254 476.975579,408.751694 C476.894073,409.097901 476.861471,409.431443 476.84517,410.064749 L476.828869,410.651613 L476.763665,410.719166 L476.69846,410.786719 L476.65567,410.689612 C476.606766,410.575617 476.568051,410.364514 476.525261,409.986641 C476.486546,409.661544 476.504885,409.203452 476.574164,408.72425 C476.651594,408.175385 476.62918,408.023391 476.43968,407.79329 C476.237954,407.5463 475.891555,407.259201 475.873217,407.320421 C475.856916,407.371085 475.738733,408.10361 475.695942,408.41393 C475.673528,408.582812 475.626663,408.840357 475.59406,408.988128 C475.504404,409.399777 475.168194,410.294851 475.021484,410.510175 C474.994995,410.550284 474.96443,410.567172 474.923677,410.567172 C474.872736,410.567172 474.860511,410.556617 474.840134,410.482732 C474.811607,410.381403 474.840134,410.254741 474.978694,409.85998 C475.098914,409.520106 475.176345,409.144344 475.259888,408.508926 C475.384184,407.561077 475.396409,407.419639 475.371958,407.21487 C475.341393,406.959436 475.288415,406.855996 475.064274,406.609007 C474.611919,406.110805 474.418343,405.868038 474.218655,405.553496 C474.15345,405.450056 474.096396,405.359282 474.094359,405.35506 C474.090283,405.348727 474.049531,405.382503 474.004703,405.428945 C473.843729,405.591494 473.578836,406.178358 473.538084,406.467568 C473.509557,406.649116 473.517707,406.737779 473.5931,407.088209 L473.646078,407.335198 L473.607363,407.457637 C473.570686,407.573744 473.564573,407.580077 473.487143,407.594854 C473.409712,407.609631 473.401562,407.605409 473.313943,407.508302 C473.234475,407.42175 473.216137,407.383752 473.177422,407.219092 C473.11018,406.94677 473.08369,406.545676 473.112217,406.269132 C473.132594,406.05803 473.140744,406.032698 473.246701,405.832151 C473.360809,405.610493 473.639965,405.008852 473.639965,404.979298 C473.642003,404.970854 473.611438,404.846303 473.574761,404.702754 L473.507519,404.443098 L473.395449,404.44732 C473.324132,404.451542 473.260965,404.440987 473.22225,404.419877 C473.165196,404.388212 473.142782,404.388212 473.008298,404.415655 C472.924754,404.432543 472.757668,404.445209 472.639485,404.445209 C472.447947,404.445209 472.415345,404.451542 472.366442,404.491652 C472.323651,404.525428 472.286974,404.535983 472.213619,404.531761 L472.11785,404.527539 L471.960952,404.721753 C471.873333,404.827304 471.765338,404.981409 471.72051,405.063739 L471.636967,405.213621 L471.661419,405.380392 C471.679758,405.517608 471.704209,405.589383 471.793865,405.762487 C472.056721,406.273354 472.130076,406.579452 472.091361,407.010101 C472.081172,407.138873 472.058758,407.292978 472.042457,407.352086 C472.01393,407.461859 471.922237,407.601187 471.879446,407.601187 C471.86722,407.601187 471.838693,407.563188 471.812204,407.516746 C471.773489,407.44286 471.769414,407.413306 471.779602,407.269756 C471.816279,406.786332 471.579913,406.098139 471.23759,405.690712 L471.158122,405.597827 L470.988998,405.762487 C470.705767,406.03692 470.155604,406.444347 469.748077,406.67867 C469.662496,406.727224 469.525974,406.84333 469.362963,407.00799 C469.153086,407.221203 469.100108,407.286645 469.051205,407.40064 C468.992113,407.533634 468.992113,407.542078 469.012489,407.694072 C469.032866,407.827066 469.047129,407.862954 469.114371,407.947394 C469.183651,408.031835 469.216253,408.052945 469.38334,408.112054 C469.489297,408.150052 469.65027,408.198606 469.739926,408.221827 C470.139303,408.325267 470.707804,408.684141 470.895267,408.95013 C470.995111,409.089457 471.050127,409.228785 471.017525,409.258339 C471.009375,409.266783 470.968622,409.285782 470.927869,409.298448 C470.864702,409.319559 470.836175,409.315337 470.715955,409.268894 C470.638525,409.237229 470.542756,409.184453 470.502003,409.150677 C470.212658,408.897354 470.135228,408.844579 469.953878,408.762249 C469.748077,408.669364 469.525974,408.616588 469.242743,408.593367 C469.085844,408.57859 469.069543,408.580701 469.024715,408.625032 C468.959511,408.688363 468.941172,408.872022 468.973774,409.133789 C469.022678,409.558104 469.234592,410.049972 469.556539,410.49962 C469.735851,410.74872 469.748077,410.771942 469.748077,410.864826 C469.748077,410.919713 469.741964,410.970378 469.733813,410.9746 C469.723625,410.980933 469.676759,410.989377 469.625818,410.99571 C469.548388,411.006265 469.517824,410.999932 469.432243,410.947156 Z" id="Path" fill="#A2907E" fill-rule="nonzero" transform="translate(466.000000, 397.500000) scale(1, -1) translate(-466.000000, -397.500000) "></path>
    </g>
</svg>