<?xml version="1.0" encoding="UTF-8"?>
<svg viewBox="0 0 1053 600" version="1.1" xmlns="http://www.w3.org/2000/svg" xmlns:xlink="http://www.w3.org/1999/xlink">
    <g id="mountains" stroke="none" stroke-width="1" fill="none" fill-rule="evenodd">
        <path d="M477.777398,226 L699.757453,594.206777 C700.898033,596.0987 700.288949,598.557029 698.397026,599.697609 C697.773701,600.073391 697.059659,600.271979 696.331823,600.271979 L237.811611,600.271979 C235.602472,600.271979 233.811611,598.481118 233.811611,596.271979 C233.811611,595.48761 234.042221,594.72055 234.474753,594.066218 L477.777398,226 Z" id="Rectangle" fill="#F8F9FA" fill-rule="nonzero"></path>
        <polygon id="Rectangle" fill="#FFFFFF" fill-rule="nonzero" points="478.073457 242 514.698231 304.067042 418.5806 331.06024"></polygon>
        <path d="M436.650643,356 L397.19463,485.990464 C396.96711,486.740041 396.524505,487.406315 395.921734,487.906613 L312.508786,557.139059 C310.808892,558.549964 308.287091,558.315693 306.876185,556.615799 C305.748466,555.257096 305.645044,553.319694 306.621704,551.848655 L436.650643,356 Z" id="Rectangle" fill="#EEEFEF" fill-rule="nonzero" opacity="0.375255766"></path>
        <path d="M701.339744,570.656716 L753.660256,479.343284" id="Line" stroke="#F4F6F7" stroke-width="15" stroke-linecap="round" fill-rule="nonzero"></path>
        <path d="M745.339744,541.656716 L797.660256,450.343284" id="Line" stroke="#F4F6F7" stroke-width="15" stroke-linecap="round" fill-rule="nonzero"></path>
        <circle id="Oval" stroke="#F4F6F7" stroke-width="10" fill="#FFFFFF" fill-rule="nonzero" cx="889" cy="121" r="51"></circle>
        <path d="M708.152667,110.116093 L999.831445,593.934798 C1000.97202,595.826721 1000.36294,598.28505 998.471017,599.42563 C997.847693,599.801412 997.133651,600 996.405815,600 L391.76398,600 C389.554841,600 387.76398,598.209139 387.76398,596 C387.76398,595.215631 387.994589,594.448571 388.427122,593.794239 L708.152667,110.116093 Z" id="Rectangle" fill="#F4F6F7" fill-rule="nonzero"></path>
        <path d="M708.536335,130.116093 L756.474435,211.355531 C736.263305,211.355531 717.810733,216.722024 701.116718,227.455011 C684.422704,238.187998 660.939212,244.598621 630.666244,246.686878 L708.536335,130.116093 Z" id="Rectangle" fill="#FFFFFF" fill-rule="nonzero"></path>
        <path d="M654.479572,280 L602.727924,450.499252 C602.500405,451.248829 602.0578,451.915103 601.455029,452.415401 L485.523142,548.638449 C483.823248,550.049354 481.301446,549.815083 479.89054,548.115189 C478.762822,546.756486 478.659399,544.819084 479.636059,543.348045 L654.479572,280 Z" id="Rectangle" fill="#EEEFEF" fill-rule="nonzero"></path>
        <path d="M728,246 L757.500082,253.494963 C758.274414,253.691695 758.857378,254.330384 758.982799,255.11941 L763.972012,286.506828 L751.160379,259.522887 L728,246 Z" id="Rectangle" fill="#D8D8D8" fill-rule="nonzero"></path>
        <path d="M764,110 L777.248585,113.435624 C778.020681,113.635844 778.599989,114.275694 778.722729,115.063828 L780.972012,129.506828 L774.927335,116.512201 L764,110 Z" id="Rectangle" fill="#D8D8D8" fill-rule="nonzero" transform="translate(772.486006, 119.753414) scale(-1, 1) translate(-772.486006, -119.753414) "></path>
        <path d="M764,110 L777.248585,113.435624 C778.020681,113.635844 778.599989,114.275694 778.722729,115.063828 L780.972012,129.506828 L774.927335,116.512201 L764,110 Z" id="Rectangle" fill="#D8D8D8" fill-rule="nonzero" transform="translate(772.486006, 119.753414) scale(-1, 1) translate(-772.486006, -119.753414) "></path>
        <path d="M795.765879,171.570466 L814.214403,177.641724 C814.950169,177.883859 815.479965,178.529069 815.574312,179.297887 L818.737891,205.077294 L810.556281,182.756458 L795.765879,171.570466 Z" id="Rectangle" fill="#D8D8D8" fill-rule="nonzero" transform="translate(807.251885, 188.323880) scale(-1, 1) rotate(60.000000) translate(-807.251885, -188.323880) "></path>
    </g>
</svg>