<?xml version="1.0" standalone="no"?>
<!DOCTYPE svg PUBLIC "-//W3C//DTD SVG 20010904//EN"
 "http://www.w3.org/TR/2001/REC-SVG-20010904/DTD/svg10.dtd">
<svg version="1.0" xmlns="http://www.w3.org/2000/svg"
 width="1000.000000pt" height="1000.000000pt" viewBox="0 0 1000.000000 1000.000000"
 preserveAspectRatio="xMidYMid meet">
<metadata>
Created by potrace 1.11, written by Peter Selinger 2001-2013
</metadata>
<g transform="translate(0.000000,1000.000000) scale(0.100000,-0.100000)"
fill="#000000" stroke="none">
<path d="M5005 9384 c-230 -46 -431 -202 -532 -414 -47 -98 -67 -189 -67 -305
0 -182 29 -287 118 -424 101 -154 255 -265 441 -318 64 -18 233 -24 308 -12
314 51 569 310 617 625 12 81 7 234 -10 278 -5 14 -7 26 -5 26 6 0 -21 71 -52
139 -30 62 -110 171 -162 220 -81 76 -206 144 -326 177 -73 21 -246 25 -330 8z"/>
<path d="M4515 7686 c-206 -40 -353 -156 -457 -361 -41 -82 -89 -245 -103
-349 -3 -27 -8 -52 -10 -56 -2 -3 -6 -24 -9 -46 -2 -21 -7 -50 -10 -64 -3 -14
-8 -41 -11 -60 -2 -19 -7 -45 -9 -56 -2 -12 -7 -39 -11 -60 -10 -65 -15 -95
-35 -209 -11 -60 -22 -127 -26 -149 -3 -21 -8 -48 -10 -60 -2 -11 -7 -37 -10
-56 -6 -39 -21 -135 -29 -177 -29 -164 -47 -264 -51 -293 -3 -19 -9 -57 -14
-85 -5 -27 -11 -66 -14 -85 -3 -19 -14 -87 -26 -150 -26 -148 -68 -394 -75
-445 -4 -22 -10 -58 -15 -80 -5 -22 -8 -101 -6 -175 3 -159 25 -256 89 -393
40 -87 40 -90 29 -145 -6 -31 -27 -140 -47 -242 -20 -102 -39 -194 -41 -205
-2 -10 -6 -37 -10 -59 -3 -22 -7 -43 -9 -46 -2 -3 -6 -21 -9 -40 -3 -19 -8
-44 -10 -55 -4 -19 -92 -451 -102 -504 -8 -41 -30 -142 -59 -266 -26 -116 -34
-134 -240 -540 -117 -231 -253 -499 -303 -595 -275 -535 -273 -531 -268 -685
2 -75 7 -100 32 -149 68 -138 227 -229 429 -243 124 -8 235 27 335 106 106 85
156 155 281 397 170 328 213 412 293 566 138 268 236 459 311 603 70 135 88
191 121 365 3 14 11 50 19 80 8 30 16 66 19 80 8 44 34 162 55 250 11 47 22
96 25 110 4 25 11 56 42 185 9 39 18 81 21 95 2 14 12 61 23 105 10 44 26 115
35 158 9 42 19 77 21 77 2 0 26 -30 53 -67 28 -38 54 -72 59 -78 4 -5 64 -86
132 -180 69 -93 129 -174 133 -180 42 -51 461 -625 469 -640 8 -18 -68 -406
-177 -905 -8 -36 -17 -76 -19 -90 -2 -14 -12 -59 -21 -100 -9 -41 -19 -86 -21
-100 -4 -22 -12 -60 -20 -95 -58 -251 -67 -358 -40 -448 51 -170 193 -262 421
-272 193 -9 331 62 440 225 68 103 88 163 151 457 2 12 54 219 115 460 61 241
113 447 115 458 2 11 6 31 9 45 3 14 7 36 10 50 9 41 14 72 21 125 3 28 8 59
11 70 2 11 6 83 9 160 7 238 -26 347 -154 511 -89 114 -439 569 -492 639 -25
33 -47 62 -50 65 -3 3 -42 52 -85 110 -44 58 -86 112 -92 120 -7 8 -87 112
-178 230 l-165 214 6 61 c3 33 7 76 10 95 3 19 7 58 9 85 12 129 16 173 20
205 2 19 7 64 10 100 3 36 8 84 10 108 12 107 14 131 20 197 3 39 8 86 10 105
9 71 14 117 20 185 3 39 8 88 10 110 2 22 7 67 10 100 3 33 7 74 9 90 2 17 7
66 11 110 4 44 10 97 13 118 8 46 -27 77 282 -243 347 -359 352 -364 392 -383
53 -25 84 -22 340 33 128 28 242 52 253 54 11 2 65 14 120 26 55 12 111 24
125 26 237 46 540 118 602 144 157 65 220 144 214 269 -2 37 -8 76 -13 87 -6
10 -20 40 -32 67 -44 100 -132 167 -253 193 -29 6 -135 6 -168 -1 -29 -5 -444
-71 -510 -80 -25 -3 -101 -16 -170 -27 -224 -36 -235 -32 -392 134 -58 62
-136 145 -173 183 -37 39 -130 137 -208 219 -78 82 -177 186 -220 230 -43 45
-104 117 -135 161 -185 260 -427 422 -692 462 -77 12 -252 11 -315 -1z"/>
<path d="M3370 7449 c-275 -52 -480 -362 -629 -949 l-46 -185 -60 1 c-75 1
-116 -19 -182 -89 -65 -69 -106 -143 -142 -257 -29 -91 -84 -346 -95 -440 -3
-25 -13 -97 -21 -160 -9 -63 -18 -155 -21 -205 -5 -82 -3 -94 18 -135 28 -51
92 -96 150 -104 57 -9 295 -63 488 -111 190 -47 243 -57 329 -59 167 -5 306
61 375 178 48 82 69 173 132 561 2 17 11 66 19 110 7 44 16 94 18 110 6 38 36
213 53 315 10 58 12 73 18 114 4 21 8 41 10 45 2 3 6 29 10 56 3 28 10 73 15
100 5 28 12 68 15 90 4 23 9 52 11 65 3 14 19 106 35 205 17 99 33 191 35 205
2 14 7 42 10 64 4 21 9 48 11 60 21 97 22 177 4 231 -25 74 -135 148 -261 174
-72 15 -241 20 -299 10z"/>
<path d="M7150 6850 l0 -300 50 0 50 0 0 300 0 300 -50 0 -50 0 0 -300z"/>
<path d="M7150 3150 l0 -2400 50 0 50 0 0 2400 0 2400 -50 0 -50 0 0 -2400z"/>
</g>
</svg>
