<svg width="6" height="10" viewBox="0 0 6 10" version="1.1" xmlns="http://www.w3.org/2000/svg" xmlns:xlink="http://www.w3.org/1999/xlink"><title>icon--right-bracket</title><desc>Created with Sketch.</desc><g id="ACE---Funnel" stroke="none" stroke-width="1" fill="none" fill-rule="evenodd"><g id="ACE---Holidays" transform="translate(-1136.000000, -175.000000)" fill="#2D3737"><g id="Group-12" transform="translate(517.000000, 156.000000)"><g id="right-bracket" transform="translate(598.000000, 0.000000)"><path d="M26.534376,24.422472 C26.534184,24.42276 26.533896,24.422952 26.533608,24.42324 L22.260744,28.696296 C22.14132,28.815912 21.984552,28.875624 21.828072,28.875624 C21.6714,28.875624 21.514728,28.815912 21.395304,28.696392 C21.156264,28.457352 21.156264,28.0698 21.395208,27.83076 L25.235976,23.989704 L21.395208,20.148936 C21.156264,19.9098 21.156264,19.522344 21.395208,19.283208 C21.634344,19.044264 22.021704,19.044264 22.260744,19.283208 L26.534376,23.55684 C26.77332,23.79588 26.77332,24.183432 26.534376,24.422472" id="icon--right-bracket"/></g></g></g></g></svg>