<svg height="156" viewBox="0 0 156 156" width="156" xmlns="http://www.w3.org/2000/svg" xmlns:xlink="http://www.w3.org/1999/xlink"><linearGradient id="a" x1="90.299479%" x2="90.299479%" y1="100%" y2="0%"><stop offset="0" stop-color="#006efe"/><stop offset="1" stop-color="#00bfff"/></linearGradient><g fill="none" fill-rule="evenodd"><path d="m0 0h156v156h-156z" fill="url(#a)"/><path d="m34.7396518 22.3526848c14.5660179-14.57324479 41.451168-24.72023184 53.0868968-21.872792.3562721.08504155.6311994.36874439.7052559.72776744 2.8011575 12.22490226-7.2790355 38.53389426-21.8907457 53.08526616-2.584281 2.6015161-5.3900859 4.9727423-8.3855926 7.0867844.3854077 4.4739804.0437064 8.9479607-1.6250683 12.779676-4.7262079 10.8111244-17.1526184 13.9588182-22.4787905 14.8138457-.5919447.0999733-1.1964994-.0833553-1.633475-.4953431-.4369757-.4119885-.6559132-1.0050633-.5915578-1.6024565l1.9031977-17.3391591c-1.3004369-.0129426-2.5993804-.0919187-3.8918206-.2366236-.9022925-.0883467-1.7454598-.4892142-2.3839637-1.1334081l-6.7168176-6.7069938c-.6444429-.6384917-1.0450981-1.4827406-1.1323827-2.3861225-.1451183-1.3008822-.2240235-2.6083112-.2364097-3.9172183l-17.34532215 1.9148638c-.59706392.0652655-1.19013558-.1536055-1.60195785-.5911966-.41182226-.4375912-.59468844-1.0432109-.49394352-1.6358516.87610664-5.3409381 4.02095201-17.7567302 14.82229392-22.5150567 3.8282483-1.670286 8.3200332-2.0023547 12.811818-1.6046676 2.1119917-2.990971 4.4804153-5.7920079 7.0783854-8.371314zm-19.6821645 38.1297417c.3742897-.0510272.7391532.1435587.905351.4828347.1661979.3392754.0963258.746884-.1733765 1.011416-.6016229.6017119-1.5682303 3.1629978-1.8951121 4.9901957-.85631 4.8197106 3.3530449 8.9394299 8.1199037 8.1271195 2.1217234-.3670446 3.8844785-.7962654 4.983443-1.8973979.577558-.6037172 1.5983115-.1042966 1.5241114.7340886-.3207317 2.6698328-1.5308107 5.153934-3.4352668 7.0520604-4.7147181 4.7194258-22.2339769 5.1646923-22.2339769 5.1646923s.44520094-17.5118157 5.15991904-22.231241c1.89939402-1.8988281 4.37933306-3.1075622 7.04500416-3.4337683zm43.7462908-39.8442201c-3.8574619 0-7.3349759 2.3261176-8.8105787 5.8934175s-.6586098 7.6730464 2.0699215 10.4022594c1.7868468 1.791024 4.2118659 2.7974261 6.7406572 2.7974261 2.5287912 0 4.9538107-1.0064021 6.7406575-2.7974261 2.7285312-2.729213 3.5455238-6.8349595 2.0699215-10.4022594-1.4756029-3.5672999-4.953117-5.8934175-8.810579-5.8934175z" fill="#fff" fill-rule="nonzero" transform="translate(34 34)"/></g></svg>