<svg height="156" viewBox="0 0 156 156" width="156" xmlns="http://www.w3.org/2000/svg"><g fill="none" fill-rule="evenodd"><path d="m0 0h156v156h-156z" fill="#222"/><path d="m92 30h-27v9.0967742h27zm-18 58.6236559h9v-27.2903226h-9zm36.135-30.2551971 6.39-6.3789725c-1.935-2.2910395-4.05-4.4473119-6.345-6.3340502l-6.39 6.3789725c-6.975-5.5703704-15.75-8.8946237-25.29-8.8946237-22.365 0-40.5 18.1037037-40.5 40.4301076 0 22.3264035 18.09 40.4301075 40.5 40.4301075s40.5-18.103704 40.5-40.4301075c0-9.5235365-3.33-18.2833931-8.865-25.2014337zm-31.635 56.5347672c-17.415 0-31.5-14.010476-31.5-31.3333335 0-17.3228572 14.085-31.3333334 31.5-31.3333334s31.5 14.0104762 31.5 31.3333334c0 17.3228575-14.085 31.3333335-31.5 31.3333335z" fill="#fff" fill-rule="nonzero"/></g></svg>